<svg xmlns="http://www.w3.org/2000/svg" width="55" height="55"><g data-name="Group 5040"><g data-name="Group 4879"><g data-name="Group 114"><rect width="55" height="55" fill="#f4f7fb" data-name="Rectangle 25" rx="15" /></g></g><g data-name="Group 4922"><g data-name="Group 4921"><path fill="#306db5" d="M35.824 17.336h-.7v-1.408a1.41 1.41 0 0 0-1.408-1.408h-2.17a4.225 4.225 0 0 0-8.331 0h-2.17a1.41 1.41 0 0 0-1.408 1.408v1.408h-.7a.704.704 0 1 0 0 1.408h16.9a.704.704 0 0 0 0-1.408Zm-2.112 0H21.04v-1.408h2.816a.7.7 0 0 0 .7-.7 2.816 2.816 0 1 1 5.632 0 .7.7 0 0 0 .7.7h2.816Z" data-name="Path 8954" /></g></g><g data-name="Group 4924"><g data-name="Group 4923"><path fill="#306db5" d="M37.232 20.152H17.516a.7.7 0 0 0-.7.7v19.712a1.41 1.41 0 0 0 1.408 1.408h18.3a1.41 1.41 0 0 0 1.408-1.408V20.856a.7.7 0 0 0-.7-.704m-.7 20.416h-18.3V21.56h18.3z" data-name="Path 8955" /></g></g><g data-name="Group 4926"><g data-name="Group 4925"><path fill="#7eb7db" d="M28.08 14.52h-1.408a.704.704 0 0 0 0 1.408h1.408a.704.704 0 0 0 0-1.408" data-name="Path 8956" /></g></g><g data-name="Group 4928"><g data-name="Group 4927"><path fill="#7eb7db" d="M34.416 34.936h-2.525l-2.61-2.61a.7.7 0 0 0-1 0l-3.726 3.726-1.614-1.614a.7.7 0 0 0-.5-.206h-2.105a.704.704 0 1 0 0 1.408h1.821l1.906 1.906a.7.7 0 0 0 1 0l3.726-3.726 2.318 2.318a.7.7 0 0 0 .5.206h2.816a.704.704 0 1 0 0-1.408Z" data-name="Path 8957" /></g></g><g data-name="Group 4930"><g data-name="Group 4929"><path fill="#306db5" d="M37.936 15.224a.704.704 0 1 0 0 1.408 1.41 1.41 0 0 1 1.408 1.408v23.936a1.41 1.41 0 0 1-1.408 1.408h-21.12a1.41 1.41 0 0 1-1.408-1.408V18.04a1.41 1.41 0 0 1 1.408-1.408.704.704 0 0 0 0-1.408A2.82 2.82 0 0 0 14 18.04v23.936a2.82 2.82 0 0 0 2.816 2.816h21.12a2.82 2.82 0 0 0 2.816-2.816V18.04a2.82 2.82 0 0 0-2.816-2.816" data-name="Path 8958" /></g></g><g data-name="Group 4932"><g data-name="Group 4931"><path fill="#7eb7db" d="M25.968 23.672h-4.224a1.41 1.41 0 0 0-1.408 1.408v1.408a1.41 1.41 0 0 0 1.408 1.408h4.224a1.41 1.41 0 0 0 1.408-1.408V25.08a1.41 1.41 0 0 0-1.408-1.408m0 2.816h-4.224v-1.406h4.224Z" data-name="Path 8959" /></g></g><g data-name="Group 4934"><g data-name="Group 4933"><path fill="#7eb7db" d="M32.304 25.08h-2.816a.704.704 0 0 0 0 1.408H31.6V28.6a.704.704 0 1 0 1.408 0v-2.816a.7.7 0 0 0-.704-.704" data-name="Path 8960" /></g></g><g data-name="Group 4936"><g data-name="Group 4935"><path fill="#7eb7db" d="M26.672 29.304H21.04a.704.704 0 0 0 0 1.408h5.632a.704.704 0 1 0 0-1.408" data-name="Path 8961" /></g></g></g></svg>